<?xml version="1.0" standalone="no"?><!DOCTYPE svg PUBLIC "-//W3C//DTD SVG 1.1//EN" "http://www.w3.org/Graphics/SVG/1.1/DTD/svg11.dtd"><svg t="1566198504764" class="icon" viewBox="0 0 1024 1024" version="1.1" xmlns="http://www.w3.org/2000/svg" p-id="1455" width="200" height="200" xmlns:xlink="http://www.w3.org/1999/xlink"><defs><style type="text/css"></style></defs><path d="M509.452736 565.492537c-154.364179 0-280.199005-125.834826-280.199005-280.199005S355.088557 5.094527 509.452736 5.094527s280.199005 125.834826 280.199005 280.199005-125.834826 280.199005-280.199005 280.199005z m0-509.452736c-126.344279 0-229.253731 102.909453-229.253731 229.253731s102.909453 229.253731 229.253731 229.253732 229.253731-102.909453 229.253732-229.253732-102.909453-229.253731-229.253732-229.253731z" fill="#ffffff" p-id="1456"></path><path d="M1018.905473 1024h-50.945274c0-227.21592-231.291542-458.507463-458.507463-458.507463s-458.507463 231.291542-458.507462 458.507463H0c0-121.249751 58.077612-248.612935 158.439801-349.99403C259.820896 572.624876 387.693532 514.547264 509.452736 514.547264c121.759204 0 249.631841 58.077612 351.012936 159.458706 100.362189 101.381095 158.439801 228.744279 158.439801 349.99403z" fill="#ffffff" p-id="1457"></path></svg>